<svg width="645" height="822" viewBox="0 0 645 822" fill="none" xmlns="http://www.w3.org/2000/svg">
<path fill-rule="evenodd" clip-rule="evenodd" d="M440.675 142.109C440.675 142.109 440.675 142.109 440.675 142.258C440.675 142.258 440.675 142.258 440.675 142.109ZM0 822H60.4406C60.1399 798.935 61.042 471.713 59.9895 460.255C56.6818 398.798 34.8811 342.401 0.15035 295.974V822H0ZM584.559 822H645V295.974C610.119 342.401 588.469 398.798 585.161 460.255C584.108 470.969 585.01 799.977 584.71 822H584.559ZM583.056 114.878C585.913 117.556 588.769 120.383 591.476 123.211C567.871 194.488 552.836 284.962 550.881 362.341C540.507 293.295 515.85 222.761 480.818 163.091C481.119 163.239 481.269 163.388 480.818 163.091C445.035 102.229 397.675 48.8081 341.745 5.95221C344.601 4.01774 347.458 2.08327 350.315 0C371.364 17.7078 406.545 38.0941 464.43 51.933C509.385 62.647 551.182 84.3726 583.056 114.729V114.878ZM643.797 250.439C607.713 295.378 575.689 367.102 569.675 426.773C562.759 335.407 580.35 229.904 605.608 140.026C629.063 170.977 643.496 208.327 643.797 250.439ZM387.451 526.324C370.913 501.622 348.661 480.938 322.65 466.207C281.304 489.718 249.731 527.961 235.147 572.9C232.441 581.233 231.238 589.864 231.238 598.643V709.503H258V620.667C258 586.59 293.934 555.936 322.801 542.097C351.668 555.936 387.752 586.59 387.601 620.667V709.503H414.364V598.643C414.364 589.864 413.161 581.233 410.455 572.9C405.042 556.234 397.374 540.609 387.752 526.324H387.451ZM469.091 352.52C431.654 296.718 381.437 250.142 322.65 216.66C229.283 269.635 158.017 356.24 124.79 457.725C118.626 476.474 115.769 496.117 115.769 515.759V766.198H176.21V565.311C175.007 489.867 258.451 417.845 322.65 387.638C386.85 417.845 470.294 489.569 469.091 565.311V766.198H529.531V515.759C529.531 496.117 526.675 476.474 520.51 457.725C508.182 420.077 490.892 384.81 469.091 352.52ZM114.867 274.843C105.996 303.414 99.0804 333.175 94.4196 362.49C92.465 285.111 77.4301 194.488 53.8252 123.36C87.2028 88.0927 131.857 63.9862 180.871 52.0818C238.455 38.2429 273.787 17.8566 294.685 0.148805C297.542 2.08327 300.399 4.01774 303.255 6.10101C247.325 49.1057 199.965 102.378 164.332 163.239C164.483 163.239 164.633 162.942 164.332 163.239C144.937 196.869 126.594 236.451 114.717 274.843H114.867ZM536.297 398.798C536.297 398.798 536.297 399.244 536.297 399.393C537.049 406.536 537.801 413.678 538.252 420.672C538.252 420.375 537.951 420.077 537.951 419.928C502.92 339.127 446.689 261.004 374.371 208.476C358.133 196.869 341.294 186.751 323.853 178.417C228.682 223.952 152.154 321.568 109.605 419.928C109.605 420.226 109.304 420.524 109.304 420.821C116.371 323.651 150.951 220.381 205.829 143.746C205.829 143.746 205.829 143.746 205.829 143.597C238.455 96.7234 278.297 55.3555 323.703 20.6839C368.808 54.9091 408.35 96.1282 440.825 142.407C440.825 142.407 440.825 142.407 440.825 142.555C440.825 142.555 440.825 142.555 440.825 142.407C492.094 213.238 525.773 308.473 536.147 398.947L536.297 398.798ZM1.35315 250.588C1.65385 208.476 15.9371 171.126 39.542 140.175C64.8007 230.053 82.3916 335.705 75.4755 426.922C69.4615 367.102 37.4371 295.527 1.35315 250.588Z" fill="url(#paint0_linear_34_9)"/>
<defs>
<linearGradient id="paint0_linear_34_9" x1="265.518" y1="36.6061" x2="353.022" y2="821.457" gradientUnits="userSpaceOnUse">
<stop stop-color="#ECE49A"/>
<stop offset="0.19" stop-color="#FDED68"/>
<stop offset="0.42" stop-color="#B49404"/>
<stop offset="0.68" stop-color="#E3BD3F"/>
<stop offset="1" stop-color="#A27C25"/>
</linearGradient>
</defs>
</svg>
